<?xml version="1.0" encoding="utf-8"?>
<!-- Generator: Adobe Illustrator 23.0.5, SVG Export Plug-In . SVG Version: 6.00 Build 0)  -->
<svg version="1.1" id="Layer_1" xmlns="http://www.w3.org/2000/svg" xmlns:xlink="http://www.w3.org/1999/xlink" x="0px" y="0px"
	 viewBox="0 0 401.7 76" style="enable-background:new 0 0 401.7 76;" xml:space="preserve">
<style type="text/css">
	.st0{fill:#00BBF0;}
	.st1{fill:#015792;}
</style>
<g>
	<path class="st0" d="M39.5,72.6c-3,1.6-6.1,2.5-9.5,2.9c-3.3,0.4-6.3,0.5-8.8,0.5c-5.1,0-9.6-1.4-13.4-4.2C3.9,69,2,64.5,2,58.1
		c0-6,1.7-10.2,5.2-12.8c3.5-2.6,7.9-4.3,13.3-5.1c0.7,0,1.6-0.1,2.6-0.3c1-0.2,2.1-0.4,3.4-0.5c6.2-0.9,9.4-2.7,9.4-5.5
		c0-2.1-1.1-3.5-3.3-4.2c-2.2-0.6-4.2-1-6.1-1c-2,0-3.8,0.3-5.3,0.9c-1.6,0.6-2.7,1.6-3.4,3.2H3.5c0.6-4.4,2.6-8,6-10.9
		c3.8-3.3,9.3-4.9,16.4-4.9c7.9,0,13.9,1.4,17.9,4c4.1,2.8,6.2,6.8,6.2,11.9v19.4c0,5.7-1,10.1-3.1,13.3
		C44.8,68.8,42.3,71.1,39.5,72.6z M36.1,46.4c-2,1-4.8,1.9-8.3,2.8l-4.9,1.1c-2.6,0.7-4.4,1.6-5.5,2.8c-1,1.6-1.5,3.1-1.5,4.7
		c0,2.1,0.6,3.8,1.9,5.1c1.3,1.1,3.1,1.7,5.5,1.7c4,0,7.1-1.1,9.4-3.4c2.3-2.3,3.4-5.4,3.4-9.4V46.4z"/>
	<path class="st0" d="M94.7,57.4h10.6c-1.6,6-4.5,10.5-8.9,13.6C92,74.3,86.5,76,79.8,76c-8.1,0-14.4-2.6-19-7.9
		C56.3,63,54,55.7,54,46.2c0-9.1,2.2-16.2,6.6-21.3c4.5-5.3,10.9-7.9,19-7.9c8.5,0,15.1,2.6,19.8,7.7c2.6,3.1,4.4,6.7,5.5,10.9H90
		c-0.7-1.4-1.4-2.5-2.1-3.2c-1.8-2-4.5-3-7.9-3c-3.1,0-5.7,1-7.7,3c-2.6,2.8-3.8,7.5-3.8,14.1c0,6.5,1.3,11.1,3.8,13.8
		c1.8,2.3,4.6,3.4,8.3,3.4c2.4,0,4.5-0.5,6.2-1.5c0.4-0.1,0.8-0.4,1.2-0.7c0.4-0.4,0.7-0.7,1.2-1.2c0.3-0.4,0.9-1,1.7-1.7
		C91.7,57.8,93,57.4,94.7,57.4z"/>
	<path class="st0" d="M150.4,57.4H161c-1.6,6-4.5,10.5-8.9,13.6c-4.4,3.3-9.9,4.9-16.6,4.9c-8.1,0-14.4-2.6-19-7.9
		c-4.5-5.1-6.8-12.4-6.8-21.9c0-9.1,2.2-16.2,6.6-21.3c4.5-5.3,10.9-7.9,19-7.9c8.5,0,15.1,2.6,19.8,7.7c4.5,5.3,6.8,12.6,6.8,21.9
		c0,0.6,0,1.1,0,1.5s0,0.7,0,0.9c0,0.7-0.1,1.2-0.2,1.5h-36.8c0.1,4.4,1.2,7.7,3.2,9.8c1.8,2.3,4.6,3.4,8.3,3.4
		c2.4,0,4.5-0.5,6.2-1.5c0.4-0.1,0.8-0.4,1.2-0.7c0.4-0.4,0.7-0.7,1.2-1.2c0.1-0.4,0.7-1,1.6-1.7C147.3,57.8,148.7,57.4,150.4,57.4z
		 M124.8,40.8h21.7c-0.3-3.8-1.3-6.7-3-8.5c-1.8-2-4.5-3-7.9-3c-3.1,0-5.7,1-7.7,3C126,34.3,124.9,37.1,124.8,40.8z"/>
	<path class="st0" d="M216.9,74.9h-7.5c-2.1,0-3.9-0.7-5.2-2c-1.4-1.3-2-3.1-2-5.2v-29c0-3.4-1-5.9-3.1-7.5
		c-2.1-1.6-4.4-2.3-6.9-2.3c-2.6,0-4.8,0.8-6.8,2.3c-2,1.6-3,4-3,7.5v36.2h-14.9V41.7c0-9.7,2.5-16.1,7.6-19.4
		c5-3.3,10.6-5,16.7-5.3c6.2,0,12,1.6,17.2,4.9c5.3,3.3,7.9,9.9,7.9,19.8V74.9z"/>
	<path class="st1" d="M247.6,74.9c-4.7,0.3-9.8,0.2-15.2-0.2c-5.5-0.4-8.2-3.9-8.2-10.4V1.7h7.7c1.8,0,3.5,0.7,4.9,2.1
		c1.4,1.4,2.1,3.1,2.1,5.1v9.6h8.7v3c0,2.1-0.7,3.9-2.1,5.2c-1.4,1.4-3.1,2-5.1,2h-1.5v31.5c0,2.4,1.4,3.6,4.3,3.6h4.5V74.9z"/>
	<path class="st0" d="M301.6,18.3v33.2c0,10.1-2.6,16.7-7.9,19.8c-5.3,3.1-11,4.7-17.2,4.7c-6.1-0.3-11.7-2-16.7-5.1
		c-5-3.1-7.6-9.6-7.6-19.4V18.3h14.9v36.2c0,3.4,1,5.9,3,7.5c2,1.6,4.3,2.3,6.8,2.3c2.6,0,4.9-0.8,6.9-2.3c2.1-1.6,3.1-4,3.1-7.5
		v-29c0-2,0.7-3.7,2-5.1c1.3-1.4,3.1-2.1,5.2-2.1H301.6z"/>
	<path class="st0" d="M307.2,74.9V47.4c0-5.5,0.8-10.2,2.4-13.9c1.6-3.8,3.9-6.8,6.7-9c2.7-2.1,5.9-3.7,9.5-4.7
		c3.6-1,7.3-1.5,11.2-1.5c0.3,0,0.6,0,1.1,0s0.8,0,1.1,0v15.1h-4.9c-4.1,0-7.2,1-9.2,3c-2,2-3,5.1-3,9.4v29.2H307.2z"/>
	<path class="st0" d="M380.1,72.6c-3,1.6-6.1,2.5-9.5,2.9c-3.3,0.4-6.3,0.5-8.8,0.5c-5.1,0-9.6-1.4-13.4-4.2s-5.7-7.3-5.7-13.7
		c0-6,1.7-10.2,5.2-12.8c3.5-2.6,7.9-4.3,13.3-5.1c0.7,0,1.6-0.1,2.6-0.3c1-0.2,2.1-0.4,3.4-0.5c6.2-0.9,9.4-2.7,9.4-5.5
		c0-2.1-1.1-3.5-3.3-4.2c-2.2-0.6-4.2-1-6.1-1c-2,0-3.8,0.3-5.3,0.9c-1.6,0.6-2.7,1.6-3.4,3.2h-14.3c0.6-4.4,2.6-8,6-10.9
		c3.8-3.3,9.3-4.9,16.4-4.9c7.9,0,13.9,1.4,17.9,4c4.1,2.8,6.2,6.8,6.2,11.9v19.4c0,5.7-1,10.1-3.1,13.3
		C385.4,68.8,382.9,71.1,380.1,72.6z M376.7,46.4c-2,1-4.8,1.9-8.3,2.8l-4.9,1.1c-2.6,0.7-4.4,1.6-5.5,2.8c-1,1.6-1.5,3.1-1.5,4.7
		c0,2.1,0.6,3.8,1.9,5.1c1.3,1.1,3.1,1.7,5.5,1.7c4,0,7.1-1.1,9.4-3.4c2.3-2.3,3.4-5.4,3.4-9.4V46.4z"/>
</g>
<path class="st0" d="M384.5,15.9V5.1c0,0,0.5-5.1,5.3-5.1c4.8,0,8.7,0,8.7,0s0.5,0.5,0.5,1.1c0,0.6,0,7.8,0,7.8s0.1,3.1-2.1,5.4
	c-2.7,2.9-8.8,2.5-10,2.5S384.5,15.9,384.5,15.9z"/>
</svg>
